<svg width="193" height="288" viewBox="0 0 193 288" fill="none" xmlns="http://www.w3.org/2000/svg">
<path fill-rule="evenodd" clip-rule="evenodd" d="M55.9994 4.69079C55.9994 7.27619 58.0954 9.37207 60.6808 9.37207C64.8539 9.37207 66.9418 14.4195 63.988 17.3673L43.5314 37.7828C41.5796 39.7306 38.4193 39.7306 36.4674 37.7828L16.0108 17.3673C13.057 14.4195 15.1449 9.37207 19.3181 9.37207C21.9035 9.37207 23.9994 7.27619 23.9994 4.69079C23.9994 0.522488 29.0371 -1.56717 31.9875 1.37729L39.9977 9.37138C39.9982 9.37182 39.9988 9.37207 39.9994 9.37207C40 9.37207 40.0006 9.37182 40.0011 9.37138L48.0113 1.37728C50.9617 -1.56718 55.9994 0.522488 55.9994 4.69079Z" fill="#CD961F"/>
<path fill-rule="evenodd" clip-rule="evenodd" d="M56 58.0653C56 60.2744 54.2091 62.0653 52 62.0653C49.7909 62.0653 48 63.8561 48 66.0653V73.033C48 75.7945 50.2386 78.033 53 78.033H61.9319C63.2562 78.033 64.5265 77.5076 65.4639 76.5721L71.468 70.5801C74.6193 67.4351 80 69.6671 80 74.1192V89.0008C80 91.7622 77.7614 94.0008 75 94.0008H32V66.0653C32 63.8561 30.2091 62.0653 28 62.0653C25.7909 62.0653 24 60.2744 24 58.0653V42.1836C24 37.7315 29.3807 35.4996 32.532 38.6445L36.468 42.5726C38.4198 44.5205 41.5802 44.5205 43.532 42.5726L47.468 38.6445C50.6193 35.4996 56 37.7315 56 42.1836V58.0653ZM32 94.0008H5C2.23858 94.0008 0 91.7622 0 89.0008V74.1192C0 69.6671 5.38069 67.4351 8.53197 70.5801L32 94.0008Z" fill="#657C3D"/>
<path d="M78.8039 103.981C79.4227 100.887 77.0562 98.0007 73.901 98.0007H6.09902C2.94379 98.0007 0.577324 100.887 1.19612 103.981L7.19612 133.981C7.66354 136.318 9.71561 138.001 12.099 138.001H67.901C70.2844 138.001 72.3365 136.318 72.8039 133.981L78.8039 103.981Z" fill="#DB5322"/>
<path fill-rule="evenodd" clip-rule="evenodd" d="M1.19612 103.981C0.577324 100.887 2.94379 98.0007 6.09902 98.0007H73.901C77.0562 98.0007 79.4227 100.887 78.8039 103.981L72.8039 133.981C72.3365 136.318 70.2844 138.001 67.901 138.001H12.099C9.71561 138.001 7.66354 136.318 7.19612 133.981L1.19612 103.981Z" fill="#DB5322"/>
<path fill-rule="evenodd" clip-rule="evenodd" d="M40.1238 158.728C40.1238 161.333 42.236 163.446 44.8416 163.446H60.2653C64.7195 163.446 66.9505 168.831 63.8014 171.981L57.6923 178.092C56.7549 179.029 56.2283 180.301 56.2283 181.627V209.705C56.2283 211.031 56.7548 212.302 57.692 213.24L66.6413 222.193C68.7424 224.295 67.2537 227.888 64.2817 227.888C61.3097 227.888 59.821 231.481 61.9222 233.583L64.2816 235.943C67.2535 238.916 65.1479 243.998 60.9441 243.998H19.9828C15.5287 243.998 13.2977 238.614 16.4466 235.464L22.5545 229.353C23.4918 228.416 24.0184 227.144 24.0184 225.819V216.495C24.0184 213.89 21.9062 211.778 19.3008 211.778C15.0983 211.778 12.9932 206.697 15.9642 203.725L22.5546 197.132C23.4919 196.194 24.0184 194.923 24.0184 193.597V184.274C24.0184 181.668 21.9062 179.556 19.3006 179.556H15.9688C12.996 179.556 11.5071 175.962 13.6086 173.86C14.911 172.556 14.911 170.444 13.6086 169.142C11.5071 167.039 12.996 163.446 15.9685 163.446H21.9477C23.2741 163.446 24.5462 162.919 25.4839 161.981L32.0695 155.393C35.0413 152.42 40.1238 154.524 40.1238 158.728Z" fill="#8A944D"/>
<path d="M78.9289 253.979C79.5477 250.885 77.1812 247.998 74.026 247.998H6.22402C3.06879 247.998 0.702324 250.885 1.32112 253.979L7.32112 283.979C7.78854 286.316 9.84061 287.998 12.224 287.998H68.026C70.4094 287.998 72.4615 286.316 72.9289 283.979L78.9289 253.979Z" fill="#DA731F"/>
<path fill-rule="evenodd" clip-rule="evenodd" d="M1.32112 253.979C0.702324 250.885 3.06879 247.998 6.22402 247.998H74.026C77.1812 247.998 79.5477 250.885 78.9289 253.979L72.9289 283.979C72.4615 286.316 70.4094 287.998 68.026 287.998H12.224C9.84061 287.998 7.78854 286.316 7.32112 283.979L1.32112 253.979Z" fill="#DA731F"/>
<path fill-rule="evenodd" clip-rule="evenodd" d="M160.393 25.0007C160.393 27.7622 162.632 30.0007 165.393 30.0007H180.009C184.448 30.0007 186.686 35.3531 183.568 38.5125L161.834 60.5404C160.911 61.4761 160.393 62.7377 160.393 64.0522V89.0007C160.393 91.7622 158.155 94.0007 155.393 94.0007H149.606C146.845 94.0007 144.606 91.7622 144.606 89.0007V83.0007C144.606 80.2393 142.368 78.0007 139.606 78.0007H124.99C120.552 78.0007 118.314 72.6484 121.431 69.489L143.166 47.461C144.089 46.5253 144.606 45.2638 144.606 43.9493V41.2391C144.606 37.1163 139.609 35.0659 136.713 38.0007C133.818 40.9355 128.82 38.8852 128.82 34.7624V19.0007C128.82 16.2393 131.059 14.0007 133.82 14.0007H155.393C158.155 14.0007 160.393 16.2393 160.393 19.0007V25.0007Z" fill="#8A944D"/>
<path d="M191.304 103.981C191.923 100.887 189.556 98.0007 186.401 98.0007H118.599C115.444 98.0007 113.077 100.887 113.696 103.981L119.696 133.981C120.164 136.318 122.216 138.001 124.599 138.001H180.401C182.784 138.001 184.836 136.318 185.304 133.981L191.304 103.981Z" fill="#DA731F"/>
<path fill-rule="evenodd" clip-rule="evenodd" d="M113.696 103.981C113.077 100.887 115.444 98.0007 118.599 98.0007H186.401C189.556 98.0007 191.923 100.887 191.304 103.981L185.304 133.981C184.836 136.318 182.784 138.001 180.401 138.001H124.599C122.216 138.001 120.164 136.318 119.696 133.981L113.696 103.981Z" fill="#DA731F"/>
<path fill-rule="evenodd" clip-rule="evenodd" d="M176.25 228.379C176.25 228.379 176.25 228.38 176.25 228.38C176.251 228.38 176.251 228.379 176.251 228.379L183.757 221.052C186.924 217.96 192.25 220.204 192.25 224.63V238.999C192.25 241.76 190.011 243.999 187.25 243.999H117.25C114.489 243.999 112.25 241.76 112.25 238.999V223.941C112.25 219.772 117.267 217.658 120.25 220.57L122.662 222.925C124.746 224.959 128.25 223.482 128.25 220.57C128.25 217.658 131.754 216.182 133.838 218.216L136.25 220.57C139.233 223.482 144.25 221.369 144.25 217.2V209.01C144.25 204.585 149.576 202.341 152.743 205.432L176.25 228.379Z" fill="#657C3D"/>
<path d="M191.054 253.979C191.673 250.885 189.306 247.999 186.151 247.999H118.349C115.194 247.999 112.827 250.885 113.446 253.979L119.446 283.979C119.914 286.316 121.966 287.999 124.349 287.999H180.151C182.534 287.999 184.586 286.316 185.054 283.979L191.054 253.979Z" fill="#DB5322"/>
<path fill-rule="evenodd" clip-rule="evenodd" d="M113.446 253.979C112.827 250.885 115.194 247.999 118.349 247.999H186.151C189.306 247.999 191.673 250.885 191.054 253.979L185.054 283.979C184.586 286.316 182.534 287.999 180.151 287.999H124.349C121.966 287.999 119.914 286.316 119.446 283.979L113.446 253.979Z" fill="#DB5322"/>
</svg>
