<svg width="279" height="84" viewBox="0 0 279 84" fill="none" xmlns="http://www.w3.org/2000/svg">
<path d="M46.5 61.1187C47.6046 61.1187 48.5 62.0141 48.5 63.1187V80.0142C48.4996 81.1184 47.6043 82.0142 46.5 82.0142C45.3957 82.0142 44.5004 81.1184 44.5 80.0142V63.1187C44.5 62.0141 45.3954 61.1187 46.5 61.1187ZM29.1816 55.7661C29.9627 54.9852 31.2288 54.9851 32.0098 55.7661C32.7906 56.5471 32.7906 57.8132 32.0098 58.5942L22.4521 68.1519C21.6711 68.9324 20.4049 68.9326 19.624 68.1519C18.843 67.3708 18.843 66.1038 19.624 65.3228L29.1816 55.7661ZM60.2676 55.7661C61.0486 54.9851 62.3147 54.9851 63.0957 55.7661L72.6523 65.3228C73.4334 66.1038 73.4334 67.3708 72.6523 68.1519C71.8713 68.9324 70.6051 68.9326 69.8242 68.1519L60.2676 58.5942C59.4865 57.8132 59.4865 56.5472 60.2676 55.7661ZM46.0771 24.6812C55.6409 24.6814 63.3943 32.4357 63.3945 41.9995C63.3943 51.5633 55.6409 59.3167 46.0771 59.3169C36.5134 59.3166 28.759 51.5633 28.7588 41.9995C28.7591 32.4357 36.5134 24.6814 46.0771 24.6812ZM25.3809 39.9995C26.4852 39.9997 27.3809 40.8951 27.3809 41.9995C27.3809 43.1039 26.4852 43.9993 25.3809 43.9995H8.48535C7.38099 43.9993 6.48535 43.1039 6.48535 41.9995C6.48535 40.8951 7.38099 39.9998 8.48535 39.9995H25.3809ZM84.5146 39.9995C85.6192 39.9995 86.5146 40.8949 86.5146 41.9995C86.5146 43.1041 85.6192 43.9995 84.5146 43.9995H67.6191C66.5149 43.9992 65.6191 43.1039 65.6191 41.9995C65.6191 40.8952 66.5149 39.9999 67.6191 39.9995H84.5146ZM69.8301 15.9741C70.6111 15.1931 71.8772 15.1931 72.6582 15.9741C73.4392 16.7552 73.4392 18.0212 72.6582 18.8022L63.1016 28.3589C62.3205 29.1399 61.0545 29.1399 60.2734 28.3589C59.4924 27.5778 59.4924 26.3118 60.2734 25.5308L69.8301 15.9741ZM20.4678 15.9673C21.2488 15.1867 22.515 15.1866 23.2959 15.9673L32.8525 25.5249C33.6336 26.306 33.6336 27.572 32.8525 28.353C32.0715 29.134 30.8054 29.134 30.0244 28.353L20.4678 18.7964C19.6867 18.0153 19.6867 16.7483 20.4678 15.9673ZM46.5 1.98584C47.6046 1.98584 48.5 2.88127 48.5 3.98584V20.8813C48.4997 21.9856 47.6044 22.8813 46.5 22.8813C45.3956 22.8813 44.5003 21.9856 44.5 20.8813V3.98584C44.5 2.88127 45.3954 1.98584 46.5 1.98584Z" fill="#DB5322"/>
<path fill-rule="evenodd" clip-rule="evenodd" d="M129.791 72.5398C128.095 77.4964 134.138 82 139.5 82C144.862 82 150.905 77.4964 149.209 72.5398C148.505 70.4824 145.624 65.7464 144.666 64.1971C144.462 63.8674 144.355 63.4909 144.355 63.1032V36.1388H134.645V63.1032C134.645 63.4909 134.538 63.8674 134.334 64.1971C133.376 65.7464 130.495 70.4824 129.791 72.5398Z" fill="#CD961F"/>
<path d="M134.645 36.1388V63.1032C134.645 63.4909 134.538 63.8674 134.334 64.1971C133.376 65.7464 130.495 70.4824 129.791 72.5398C128.095 77.4964 134.138 82 139.5 82C144.862 82 150.905 77.4964 149.209 72.5398C148.505 70.4824 145.624 65.7464 144.666 64.1971C144.462 63.8674 144.355 63.4909 144.355 63.1032V36.1388M134.645 36.1388V4.05656C134.645 2.92075 135.566 2 136.702 2H139.5H142.298C143.434 2 144.355 2.92075 144.355 4.05656V36.1388M134.645 36.1388H144.355" stroke="#CD961F" stroke-width="4"/>
<path d="M232.5 82C205.025 82 213.85 56.6411 213.85 56.6411L232.5 2L251.15 56.6411C251.15 56.6411 259.975 82 232.5 82Z" fill="#657C3D"/>
</svg>
