<svg width="180" height="220" viewBox="0 0 180 220" fill="none" xmlns="http://www.w3.org/2000/svg">
<rect width="180" height="220" rx="5" fill="#F8F4ED"/>
<path fill-rule="evenodd" clip-rule="evenodd" d="M53.3681 19.8982C53.3681 21.254 54.4672 22.3531 55.823 22.3531H57.2608C59.4479 22.3531 60.5432 24.9973 58.9967 26.5438L45.2847 40.2559C44.326 41.2146 42.7716 41.2146 41.8129 40.2559L28.1009 26.5438C26.5544 24.9973 27.6497 22.3531 29.8368 22.3531H31.2746C32.6304 22.3531 33.7295 21.254 33.7295 19.8982V18.4604C33.7295 16.2733 36.3737 15.178 37.9202 16.7245L41.8128 20.6171C42.7716 21.5758 44.326 21.5758 45.2847 20.617L49.1773 16.724C50.7238 15.1774 53.3681 16.2727 53.3681 18.4598V19.8982Z" fill="#CD961F"/>
<path fill-rule="evenodd" clip-rule="evenodd" d="M53.3682 52.3031C53.3682 53.6587 52.2692 54.7577 50.9136 54.7577C49.5579 54.7577 48.459 55.8566 48.459 57.2123V62.1221C48.459 63.4779 49.5581 64.577 50.9139 64.577H57.2615C57.9125 64.577 58.537 64.3184 58.9973 63.858L63.9069 58.9484C65.4534 57.4019 68.0977 58.4972 68.0977 60.6843V71.9414C68.0977 73.2972 66.9986 74.3963 65.6428 74.3963H38.6387V57.2123C38.6387 55.8566 37.5397 54.7577 36.1841 54.7577C34.8284 54.7577 33.7295 53.6587 33.7295 52.3031V41.0447C33.7295 38.8576 36.3738 37.7623 37.9203 39.3088L41.813 43.2015C42.7717 44.1602 44.326 44.1602 45.2847 43.2015L49.1774 39.3088C50.7239 37.7623 53.3682 38.8576 53.3682 41.0447V52.3031ZM38.6387 74.3963H21.4549C20.0991 74.3963 19 73.2972 19 71.9414V60.6843C19 58.4972 21.6443 57.4019 23.1908 58.9484L38.6387 74.3963Z" fill="#657C3D"/>
<path d="M67.3352 79.4108C67.7226 77.8614 66.5507 76.3605 64.9536 76.3605H22.1442C20.5471 76.3605 19.3752 77.8614 19.7626 79.4108L23.4449 94.1401C23.7181 95.2329 24.7 95.9996 25.8265 95.9996H61.2713C62.3978 95.9996 63.3797 95.2329 63.6529 94.1401L67.3352 79.4108Z" fill="#DB5322"/>
<path fill-rule="evenodd" clip-rule="evenodd" d="M19.7626 79.4108C19.3752 77.8614 20.5471 76.3605 22.1442 76.3605H64.9536C66.5507 76.3605 67.7226 77.8614 67.3352 79.4108L63.6529 94.1401C63.3797 95.2329 62.3978 95.9996 61.2713 95.9996H25.8265C24.7 95.9996 23.7181 95.2329 23.4449 94.1401L19.7626 79.4108Z" fill="#DB5322"/>
<path d="M99.0977 31.9998H156.098" stroke="#2A1F13" stroke-width="4" stroke-linecap="round"/>
<path d="M99.0977 47.9998H156.098" stroke="#2A1F13" stroke-width="4" stroke-linecap="round"/>
<path d="M99.0977 63.9998H156.098" stroke="#2A1F13" stroke-width="4" stroke-linecap="round"/>
<path d="M99.0977 79.9998H156.098" stroke="#2A1F13" stroke-width="4" stroke-linecap="round"/>
<path d="M19 116H156" stroke="#2A1F13" stroke-width="4" stroke-linecap="round"/>
<path d="M19 136H156" stroke="#2A1F13" stroke-width="4" stroke-linecap="round"/>
<path d="M19 156H156" stroke="#2A1F13" stroke-width="4" stroke-linecap="round"/>
<path d="M19 176H156" stroke="#2A1F13" stroke-width="4" stroke-linecap="round"/>
<path d="M19 196H156" stroke="#2A1F13" stroke-width="4" stroke-linecap="round"/>
</svg>
